<?xml version="1.0" encoding="utf-8"?>
<!-- Generator: Adobe Illustrator 23.0.1, SVG Export Plug-In . SVG Version: 6.00 Build 0)  -->
<svg version="1.1" id="Layer_1" xmlns="http://www.w3.org/2000/svg" xmlns:xlink="http://www.w3.org/1999/xlink" x="0px" y="0px"
	 viewBox="0 0 1920 1080" style="enable-background:new 0 0 1920 1080;" xml:space="preserve">
<style type="text/css">
	.st0{fill:#7ACFD6;}
	.st1{fill:#FFDD00;}
	.st2{fill:#81C1D6;}
	.st3{fill:#E06222;}
	.st4{fill:#FF8522;}
	.st5{fill:#B11A21;}
	.st6{fill:#840F18;}
</style>
<path class="st0" d="M155.7,113.9l-61.1,34.2l-35.8,20.1L2.9,68.5C-5,54.5,3.9,34,22.9,19c3.5-2.8,7.4-5.4,11.6-7.7
	c26.8-15,56-13.7,65.3,2.9L155.7,113.9z"/>
<polygon class="st1" points="181.1,498 84.5,151.7 129.1,128.2 473,498 "/>
<path class="st2" d="M94.5,148.1l-35.8,20.1L2.9,68.5C-5,54.5,3.9,34,22.9,19L94.5,148.1z"/>
<path class="st3" d="M158.1,130.2c-2.5,14.3-15.1,30.2-34.1,40.9c-18.3,10.2-37.7,12.9-51.1,8.3c-6.3-2.1-11.2-5.9-14.2-11.2
	c-9.3-16.6,4.9-42.2,31.7-57.2c26.8-15,56-13.7,65.3,2.9C158.4,118.7,159.1,124.3,158.1,130.2z"/>
<path class="st4" d="M158.1,130.2c-2.5,14.3-15.1,30.2-34.1,40.9c-18.3,10.2-37.7,12.9-51.1,8.3c2.5-14.3,15.1-30.2,34.1-40.9
	C125.2,128.3,144.6,125.6,158.1,130.2z"/>
<path class="st5" d="M1764,105.1l61.3,31.8l35.9,18.7l56-92.7c7.9-13-1-32-20.1-46c-3.5-2.6-7.4-5-11.6-7.2
	c-26.8-13.9-56.1-12.7-65.5,2.7L1764,105.1z"/>
<polygon class="st1" points="1738.5,513 1835.3,143.5 1790.7,118.4 1446,513 "/>
<path class="st6" d="M1825.3,136.9l35.9,18.7l56-92.7c7.9-13-1-32-20.1-46L1825.3,136.9z"/>
<path class="st3" d="M1761.6,120.2c2.5,13.3,15.1,28.1,34.1,38c18.3,9.5,37.7,12,51.2,7.7c6.3-2,11.3-5.5,14.2-10.4
	c9.3-15.4-4.9-39.2-31.7-53.2c-26.8-13.9-56.1-12.7-65.5,2.7C1761.3,109.6,1760.6,114.8,1761.6,120.2z"/>
<path class="st4" d="M1761.6,120.2c2.5,13.3,15.1,28.1,34.1,38c18.3,9.5,37.7,12,51.2,7.7c-2.5-13.3-15.1-28.1-34.1-38
	C1794.5,118.4,1775.1,116,1761.6,120.2z"/>
</svg>
